/* XPM */
static const char *icon[] = {
/* columns rows colors chars-per-pixel */
"32 32 198 2",
"   c #275A00",
".  c #1D6C00",
"X  c #0E7B06",
"o  c #246100",
"O  c #2A6501",
"+  c #2B6A04",
"@  c #316C06",
"#  c #336E08",
"$  c #217A0A",
"%  c #34740D",
"&  c #39730E",
"*  c #3C7511",
"=  c #317D12",
"-  c #3C7A13",
";  c #417C16",
":  c #437E19",
">  c #4E7F25",
",  c #4D7C2C",
"<  c #577A3D",
"1  c #1D8310",
"2  c #148A10",
"3  c #1A9014",
"4  c #268513",
"5  c #248813",
"6  c #388115",
"7  c #308418",
"8  c #3D861A",
"9  c #368E1D",
"0  c #3A8C1D",
"q  c #23951A",
"w  c #32951E",
"e  c #2C9D20",
"r  c #359421",
"t  c #3A9422",
"y  c #349C22",
"u  c #3B9B25",
"i  c #3D9E28",
"p  c #2BA324",
"a  c #3AA027",
"s  c #3CA329",
"d  c #33AA2A",
"f  c #3DAA2C",
"g  c #3BB42F",
"h  c #45811B",
"j  c #49841E",
"k  c #4C8622",
"l  c #448B24",
"z  c #4E8923",
"x  c #528C26",
"c  c #54872F",
"v  c #548E29",
"b  c #449225",
"n  c #4C9027",
"m  c #409A27",
"M  c #4D962B",
"N  c #459C2C",
"B  c #48992A",
"V  c #56922B",
"C  c #59942E",
"Z  c #53982F",
"A  c #5A8D32",
"S  c #5B873A",
"D  c #5B9631",
"F  c #569F32",
"G  c #5E9A33",
"H  c #609431",
"J  c #619B36",
"K  c #649E39",
"L  c #689D3A",
"P  c #43A32C",
"I  c #42A92E",
"U  c #45AB31",
"Y  c #4CAD34",
"T  c #52A736",
"R  c #53AC36",
"E  c #56A739",
"W  c #5DA639",
"Q  c #55AB39",
"!  c #5BAA3A",
"~  c #45B535",
"^  c #42B936",
"/  c #4FB03A",
"(  c #4BB939",
")  c #52B63C",
"_  c #5AB43E",
"`  c #53B93D",
"'  c #65A23B",
"]  c #69A43E",
"[  c #63AA3E",
"{  c #45C03A",
"}  c #6C9D41",
"|  c #749F46",
" . c #7B9A49",
".. c #5DB740",
"X. c #55BD40",
"o. c #5BBD44",
"O. c #6CA641",
"+. c #66AC41",
"@. c #6DAA43",
"#. c #70A744",
"$. c #71AB46",
"%. c #72A24F",
"&. c #79A34A",
"*. c #74AE49",
"=. c #78AF4B",
"-. c #64B343",
";. c #6CB146",
":. c #63B945",
">. c #6EB74A",
",. c #66BD49",
"<. c #6BBD4B",
"1. c #75B24B",
"2. c #7AB34E",
"3. c #73BB4E",
"4. c #77A754",
"5. c #7FAF52",
"6. c #7CB651",
"7. c #73BF50",
"8. c #7EBA53",
"9. c #7FB25B",
"0. c #4DC240",
"q. c #54C143",
"w. c #5CC446",
"e. c #5EC348",
"r. c #5CCC4A",
"t. c #63C44A",
"y. c #6BC04C",
"u. c #66CD4F",
"i. c #68C94E",
"p. c #70C04E",
"a. c #67CD51",
"s. c #6CCB53",
"d. c #74C654",
"f. c #79C254",
"g. c #71C853",
"h. c #77CF59",
"j. c #6FD758",
"k. c #838F4E",
"l. c #83A753",
"z. c #80B653",
"x. c #82BB55",
"c. c #84B65A",
"v. c #8AB45C",
"b. c #84BE58",
"n. c #89BD5A",
"m. c #94AC61",
"M. c #90BA61",
"N. c #9EBE6D",
"B. c #A1B86E",
"V. c #AAB474",
"C. c #85C25B",
"Z. c #8AC35E",
"A. c #8DC661",
"S. c #8EC963",
"D. c #91CC66",
"F. c #97C068",
"G. c #99C26A",
"H. c #94CD6B",
"J. c #88D063",
"K. c #97D26C",
"L. c #99D46E",
"P. c #9FC770",
"I. c #9BD471",
"U. c #9FDA73",
"Y. c #A6C875",
"T. c #A8C07B",
"R. c #A1DC76",
"E. c #A4DF79",
"W. c #ABE47F",
"Q. c #B9BE82",
"!. c #C2B887",
"~. c #B6C981",
"^. c #BCCE88",
"/. c #B1D180",
"(. c #B0DE88",
"). c #ADE882",
"_. c #C4C28C",
"`. c #C8C28F",
"'. c #C4CE8E",
"]. c #CCC392",
"[. c #CECB95",
"{. c #D0C896",
"}. c #D3C798",
"|. c #D4CB9A",
" X c #D9CE9E",
".X c #CCD396",
"XX c #D5D59D",
"oX c #D9D29F",
"OX c #DDD6A3",
"+X c #DDD8A4",
"@X c #E1D4A6",
"#X c #E0D8A6",
"$X c #E4DBAA",
"%X c #E8DCAD",
"&X c #ECDFB1",
"*X c #F0DBB2",
"=X c #E8E0AE",
"-X c #EBE0B0",
/* pixels */
"8.C & j C 8.A.b.O.v ] *.G O.6.@.V x ] K J O.8./ *.1.@.z.h.a 1.8.",
"V V G ' z *.C.z D C O.O.] @.$.G v ] K K L ' m.[.XX~.N.C.7.~ M x.",
"D 2.1.6.@.6.8.* : j V ] O.O.O.D C K C G ' z.`.}.$X%X&X(.y 6.6.8.",
"b.*.$.Z.D.1.8.v < : - K K G K V K ] C D ] Q.|.].$X+XOX%X^.#.1.8.",
"8.$.' K.R.2.6.] c : * G ' G x k K W V G &.oXOX`.{.|.$X$X&X[.T.Z.",
"C.' @.K.D.8.8.6.v ; z v D G z V L ) 9 J m.$XOX`.[.{.=X$XOX%X%X+X",
"Z.b.] Z.S.D.I.Z.: * k v k : G ] ' J K L `.$X$X`.`.|.OX$X#X#X+XoX",
"C.L.] ' S.R.U.%.c - , ] j - K ] K @.' | |.+XXX].].[.].$X#XOX#XOX",
"E.K.@.V Z.H.H., v : S *.; : ] ] K ] O.S.D.i.4 k.].#XOXOXOX@X$X$X",
").U.*.z Z.K.b.# % ; K 1.z : G K @.1.H.x.n.e.8 A  .].%X$XOXOX$X$X",
"R.K.6.: b.U.L @ # * c.K k V @.z @.Z.).@.T K 6.] - &.Y.n._.OXOX.X",
"U.b.*.V b.K.1.%   k L j z *.*.j ' A.A.7.s ' O.O.V ' C.( l 6.6.6.",
"L.x.] *.H.8.$.# O : k v C ] ] v G c.F.M.v.G.v.v.B..XP.1.a.9 6.x.",
"U.Z.G S.S.] h O # v V x D ] ] K D m.#X#X%XOX!.OX&XOX%XA.7.@.C.+.",
"S.S.G S.2.O.+ O j z V G O.$.O.K x V.}.#X$X X}.&X$XOXI.;.Z.6.g.y ",
"' C.x *.@.O.* : k k V ] =.4.@.J V l. X+X'.'.~.Y.M.A.( ' x.1.6.O.",
"j 2.C z J D x G x j J J *.1.@.] K W E *.2.3.[ ;.;.*.z.C.*.8.x.] ",
"K G ' - h V J ' V J ] D D $.] ] K [ a ' z.3.f ' z.2.2.8.2.z.3.[ ",
"z.*.; @ & x H V ] 2.] V h V ] ] ' ] $.z.2.2.*.2.1.8.8.z.t.b p.^ ",
"-.$.K @ 6 D x x 1.C.z.' % * V J K ] *.2.b.2.f.q.w *.2.$.:.' 2.;.",
"q.M ] h f l x V =.C._ ] j * & ! P L ] C.2.1.8.) [ 1.$.2.] 2.8.*.",
"1.' K K j G ' R G 3.Y ' J ) + 8 b ] $.2.8.x.2.*.x.2.] ;.@.] *.2.",
"; D ] 2.] $.j.g 4 =.2.*.] _ %   x $.*._ b z.c.C.=.2.8.o.j 2.] 2.",
"@ j 2.@.>.` r.p 7 x.] *.K ' / + : 1.] u.2 B 9.8.;.+.+.8._ W 8.2.",
"P % *.` w.g 1 ! +.z.2.1.G :.{ 3 8 <.a X.r 2.1.8.` u i 1.X.n 1.@.",
",.- - W +.y.u *.b.2.<.[ L _ ^ q % @.:.Y @.b.e.r $.1.L 6.=.x.X.b ",
"Z.L z K *.*.@.6.x.b.o.Z *.D r.q $ C J #.8.i.{ X @.t.i ! L 2.-...",
"+.@.1.] =.7.f N E 2.b.2.H K ! ;.>._ = y.i 2.e.P [ 2._ i $.2.t.d ",
"y K b.1.*.6.d.d 5 2.8.8.V H 2.d.+.d.n +.<.,.Y U m O.J L 1.*.6.:.",
"2.:.a m =.6.c.<.W x.O.C.` b Z.s.B Z.H ] C.` [ @.2.2.C ' 1.1.y.n ",
"*.<.E ! 1.y.[ 2.2.b.] 2._ p $.Z.C.2.] $.z.d.[ S.C.2.j J 1.$.,.s ",
"1.2.n.d.I ) F 6.1.8.1.x.y.E b.z.8.1.[ $.x.t.B I.J.Y & v O.] 1.X."
};
